{
  "accessors": [
    {
      "bufferView": 2,
      "componentType": 5126,
      "count": 65532,
      "max": [
        6.805419921875,
        6.592432975769043,
        6.7684001922607422
      ],
      "min": [
        0,
        0,
        0
      ],
      "type": "VEC3"
    },
    {
      "bufferView": 2,
      "byteOffset": 786384,
      "componentType": 5126,
      "count": 65532,
      "max": [
        0.99998563528060913,
        0.9999927282333374,
        0.99999392032623291
      ],
      "min": [
        -0.99990743398666382,
        -0.99997889995574951,
        -0.99997586011886597
      ],
      "type": "VEC3"
    },
    {
      "bufferView": 3,
      "componentType": 5126,
      "count": 65532,
      "max": [
        0.99352091550827026,
        0.999977707862854,
        0.99980425834655762,
        1
      ],
      "min": [
        -0.99890798330307007,
        -0.99989163875579834,
        -0.99999380111694336,
        -1
      ],
      "type": "VEC4"
    },
    {
      "bufferView": 1,
      "componentType": 5126,
      "count": 65532,
      "max": [
        0.99331599473953247,
        0.99843800067901611
      ],
      "min": [
        0.0051049999892711639,
        0.0043279998935759068
      ],
      "type": "VEC2"
    },
    {
      "bufferView": 0,
      "componentType": 5125,
      "count": 365868,
      "max": [
        65531
      ],
      "min": [
        0
      ],
      "type": "SCALAR"
    },
    {
      "bufferView": 2,
      "byteOffset": 1572768,
      "componentType": 5126,
      "count": 6183,
      "max": [
        2.5778079032897949,
        4.2568678855895996,
        5.622894287109375
      ],
      "min": [
        0.0021669864654541016,
        0.18997097015380859,
        1.9631509780883789
      ],
      "type": "VEC3"
    },
    {
      "bufferView": 2,
      "byteOffset": 1646964,
      "componentType": 5126,
      "count": 6183,
      "max": [
        0.99501335620880127,
        0.89011317491531372,
        0.98532634973526001
      ],
      "min": [
        -0.99970519542694092,
        -0.96875208616256714,
        -0.86955893039703369
      ],
      "type": "VEC3"
    },
    {
      "bufferView": 3,
      "byteOffset": 1048512,
      "componentType": 5126,
      "count": 6183,
      "max": [
        0.85277301073074341,
        0.999977707862854,
        0.72286278009414673,
        1
      ],
      "min": [
        -0.85462456941604614,
        -0.91503429412841797,
        -0.99995362758636475,
        -1
      ],
      "type": "VEC4"
    },
    {
      "bufferView": 1,
      "byteOffset": 524256,
      "componentType": 5126,
      "count": 6183,
      "max": [
        0.99516201019287109,
        0.95230698585510254
      ],
      "min": [
        0.022513000294566154,
        0.0039619999006390572
      ],
      "type": "VEC2"
    },
    {
      "bufferView": 0,
      "byteOffset": 1463472,
      "componentType": 5125,
      "count": 31374,
      "max": [
        6182
      ],
      "min": [
        0
      ],
      "type": "SCALAR"
    }
  ],
  "asset": {
    "extras": {
      "author": "linfredriksson (https://sketchfab.com/linfredriksson)",
      "license": "CC-BY-4.0 (http://creativecommons.org/licenses/by/4.0/)",
      "source": "https://sketchfab.com/models/50ffb91434ea4d978eaefe03220d36fe",
      "title": "Apple"
    },
    "generator": "Sketchfab-3.18.7",
    "version": "2.0"
  },
  "bufferViews": [
    {
      "buffer": 0,
      "byteLength": 1588968,
      "byteOffset": 0,
      "name": "floatBufferViews",
      "target": 34963
    },
    {
      "buffer": 0,
      "byteLength": 573720,
      "byteOffset": 1588968,
      "byteStride": 8,
      "name": "floatBufferViews",
      "target": 34962
    },
    {
      "buffer": 0,
      "byteLength": 1721160,
      "byteOffset": 2162688,
      "byteStride": 12,
      "name": "floatBufferViews",
      "target": 34962
    },
    {
      "buffer": 0,
      "byteLength": 1147440,
      "byteOffset": 3883848,
      "byteStride": 16,
      "name": "floatBufferViews",
      "target": 34962
    }
  ],
  "buffers": [
    {
      "byteLength": 5031288,
      "uri": "scene.bin"
    }
  ],
  "images": [
    {
      "uri": "textures/apple_baseColor.jpeg"
    }
  ],
  "materials": [
    {
      "doubleSided": true,
      "emissiveFactor": [
        0,
        0,
        0
      ],
      "name": "apple",
      "pbrMetallicRoughness": {
        "baseColorFactor": [
          1,
          1,
          1,
          1
        ],
        "baseColorTexture": {
          "index": 0,
          "texCoord": 0
        },
        "metallicFactor": 0,
        "roughnessFactor": 0.57000000000000006
      }
    }
  ],
  "meshes": [
    {
      "primitives": [
        {
          "attributes": {
            "NORMAL": 1,
            "POSITION": 0,
            "TANGENT": 2,
            "TEXCOORD_0": 3
          },
          "indices": 4,
          "material": 0,
          "mode": 4
        }
      ]
    },
    {
      "primitives": [
        {
          "attributes": {
            "NORMAL": 6,
            "POSITION": 5,
            "TANGENT": 7,
            "TEXCOORD_0": 8
          },
          "indices": 9,
          "material": 0,
          "mode": 4
        }
      ]
    }
  ],
  "nodes": [
    {
      "children": [
        1
      ],
      "name": "RootNode (gltf orientation matrix)",
      "rotation": [
        -0.70710678118654746,
        -0,
        -0,
        0.70710678118654757
      ]
    },
    {
      "children": [
        2
      ],
      "name": "RootNode (model correction matrix)"
    },
    {
      "children": [
        3
      ],
      "matrix": [
        1,
        0,
        0,
        0,
        0,
        1,
        0,
        0,
        0,
        0,
        1,
        0,
        -3.2548799514770508,
        -3.3418519496917725,
        -3.5183489322662354,
        1
      ],
      "name": "apple.obj.cleaner.gles"
    },
    {
      "children": [
        4,
        5
      ],
      "name": ""
    },
    {
      "mesh": 0,
      "name": ""
    },
    {
      "mesh": 1,
      "name": ""
    }
  ],
  "samplers": [
    {
      "magFilter": 9729,
      "minFilter": 9987,
      "wrapS": 10497,
      "wrapT": 10497
    }
  ],
  "scene": 0,
  "scenes": [
    {
      "name": "OSG_Scene",
      "nodes": [
        0
      ]
    }
  ],
  "textures": [
    {
      "sampler": 0,
      "source": 0
    }
  ]
}

